<svg width="16" height="16" viewBox="0 0 16 16" fill="none" xmlns="http://www.w3.org/2000/svg">
<path d="M8 16.2051C12.418 16.2051 16 12.6231 16 8.20508C16 3.78708 12.418 0.205078 8 0.205078C3.582 0.205078 0 3.78708 0 8.20508C0 12.6231 3.582 16.2051 8 16.2051ZM9 9.20508C9 9.47029 8.89464 9.72465 8.70711 9.91218C8.51957 10.0997 8.26522 10.2051 8 10.2051C7.73478 10.2051 7.48043 10.0997 7.29289 9.91218C7.10536 9.72465 7 9.47029 7 9.20508V4.20508C7 3.93986 7.10536 3.68551 7.29289 3.49797C7.48043 3.31043 7.73478 3.20508 8 3.20508C8.26522 3.20508 8.51957 3.31043 8.70711 3.49797C8.89464 3.68551 9 3.93986 9 4.20508V9.20508ZM8 11.1891C8.13135 11.1891 8.26142 11.215 8.38276 11.2653C8.5041 11.3156 8.61435 11.3893 8.70721 11.4822C8.80007 11.5751 8.87372 11.6854 8.92396 11.8068C8.97419 11.9281 9.00003 12.0582 9 12.1896C8.99997 12.3209 8.97406 12.451 8.92377 12.5723C8.87347 12.6937 8.79976 12.8039 8.70686 12.8968C8.61395 12.9896 8.50367 13.0633 8.3823 13.1135C8.26093 13.1638 8.13085 13.1896 7.9995 13.1896C7.73422 13.1895 7.47983 13.0841 7.29229 12.8964C7.10475 12.7088 6.99943 12.4544 6.9995 12.1891C6.99957 11.9238 7.10501 11.6694 7.29264 11.4819C7.48027 11.2943 7.73472 11.189 8 11.1891Z" fill="#FF3333"/>
</svg>
