<svg id="Layer_1" data-name="Layer 1" xmlns="http://www.w3.org/2000/svg" viewBox="0 0 36.39 36.39"><defs><style>.cls-1{fill:#cf2228;fill-rule:evenodd;}.cls-2{fill:#fff;}</style></defs><path class="cls-1" d="M38.19,20c-.12,6.53-.68,11.74-3.62,14.57s-8,3.5-14.57,3.62c-6.53-.12-11.74-.68-14.57-3.62s-3.5-8-3.62-14.57c.12-6.53.68-11.74,3.62-14.57s8-3.5,14.57-3.62c6.53.12,11.74.68,14.57,3.62S38.07,13.47,38.19,20Z" transform="translate(-1.81 -1.81)"/><path class="cls-2" d="M15,19.13l0,4.25a1,1,0,0,0,1.13,1,1,1,0,0,0,.89-1v-6a1.54,1.54,0,0,0-1.54-1.54h0a1.53,1.53,0,0,0-1.42,1l-1.78,4.48a.07.07,0,0,1-.06,0,.07.07,0,0,1-.07,0l-1.78-4.48a1.53,1.53,0,0,0-1.42-1h0A1.54,1.54,0,0,0,7.4,17.33v6a1,1,0,0,0,.89,1,1,1,0,0,0,1.13-1v-4.3l1.87,4.73a1.08,1.08,0,0,0,.94.6,1,1,0,0,0,1-.67Z" transform="translate(-1.81 -1.81)"/><path class="cls-2" d="M32.22,17.21a2.64,2.64,0,0,0-1.08-1,3.52,3.52,0,0,0-1.67-.38H27.21a1.3,1.3,0,0,0-1.3,1.3v6.26a1,1,0,0,0,1,1h0a1,1,0,0,0,1-1V21.72H29.4a3.78,3.78,0,0,0,1.71-.36,2.66,2.66,0,0,0,1.11-1,3.1,3.1,0,0,0,.38-1.55A3.06,3.06,0,0,0,32.22,17.21Zm-1.93,2.25a1.09,1.09,0,0,1-.49.46,1.67,1.67,0,0,1-.78.16H28V17.47h1a1.67,1.67,0,0,1,.78.16,1,1,0,0,1,.49.45,1.35,1.35,0,0,1,.16.69A1.41,1.41,0,0,1,30.29,19.46Z" transform="translate(-1.81 -1.81)"/><path class="cls-2" d="M23.74,22.47H21.38l.79-.69a15,15,0,0,0,1.48-1.42,3.91,3.91,0,0,0,.72-1.09,2.7,2.7,0,0,0,.2-1,2.46,2.46,0,0,0-.4-1.41A2.61,2.61,0,0,0,23,15.93a4.06,4.06,0,0,0-1.74-.34,3.77,3.77,0,0,0-1.7.36,2.64,2.64,0,0,0-1.12,1l0,0a1,1,0,0,0-.11.21.08.08,0,0,0,0,.05s0,0,0,0,0,.06,0,.09h0s0,.06,0,.09v.12a1.07,1.07,0,0,0,1.07,1.07,1.05,1.05,0,0,0,1-.69l0,0,0-.06a1,1,0,0,1,.37-.38,1.13,1.13,0,0,1,.56-.13,1.09,1.09,0,0,1,.55.13.88.88,0,0,1,.38.36,1.16,1.16,0,0,1,.14.58,1.26,1.26,0,0,1-.12.55,2.16,2.16,0,0,1-.34.49c-.15.15-.33.32-.54.5L18.6,22.37a1.1,1.1,0,0,0-.38.82v.12a1.08,1.08,0,0,0,1.08,1.08h4.44a1,1,0,1,0,0-1.92Z" transform="translate(-1.81 -1.81)"/></svg>