<svg width="64" height="25" viewBox="0 0 64 25" fill="none" xmlns="http://www.w3.org/2000/svg">
<path d="M43.7548 15.1924L44.3637 15.3654C44.3231 15.5288 44.2622 15.6634 44.1709 15.7691C44.0796 15.8748 43.9781 15.9613 43.8462 16.0094C43.7142 16.067 43.5519 16.0959 43.3489 16.0959C43.1054 16.0959 42.9125 16.067 42.7502 15.9998C42.598 15.9325 42.466 15.8171 42.3544 15.6441C42.2428 15.4807 42.1819 15.2597 42.1819 15.0002C42.1819 14.6542 42.2834 14.385 42.4762 14.1928C42.669 14.0006 42.9531 13.9141 43.3083 13.9141C43.5925 13.9141 43.8056 13.9717 43.9679 14.0775C44.1303 14.1832 44.2521 14.3466 44.3231 14.5773L43.7142 14.7022C43.6939 14.6349 43.6736 14.5869 43.6432 14.558C43.6026 14.51 43.562 14.4715 43.5011 14.4427C43.4402 14.4139 43.3793 14.4043 43.3185 14.4043C43.1662 14.4043 43.0445 14.4619 42.9633 14.5869C42.9024 14.6734 42.8719 14.8175 42.8719 15.0002C42.8719 15.2308 42.9125 15.3942 42.9836 15.4807C43.0546 15.5672 43.1662 15.6153 43.2982 15.6153C43.4301 15.6153 43.5316 15.5769 43.5925 15.5096C43.6736 15.4231 43.7244 15.327 43.7548 15.1924Z" fill="#225E63"/>
<path d="M44.3636 15.0098C44.3636 14.6638 44.4589 14.3946 44.6495 14.2024C44.84 14.0102 45.1068 13.9141 45.4498 13.9141C45.8023 13.9141 46.0691 14.0102 46.2596 14.1928C46.4502 14.385 46.5455 14.6445 46.5455 14.9906C46.5455 15.2405 46.5074 15.4423 46.4216 15.5961C46.3359 15.7499 46.2215 15.8748 46.0596 15.9613C45.9071 16.0478 45.707 16.0959 45.4784 16.0959C45.2402 16.0959 45.0496 16.0574 44.8877 15.9805C44.7352 15.9036 44.6114 15.7883 44.5066 15.6153C44.4018 15.4423 44.3636 15.2597 44.3636 15.0098ZM45.0115 15.0098C45.0115 15.2212 45.0496 15.375 45.1259 15.4711C45.2021 15.5672 45.3069 15.6153 45.4498 15.6153C45.5927 15.6153 45.6975 15.5672 45.7737 15.4807C45.85 15.3846 45.8881 15.2212 45.8881 14.9906C45.8881 14.7887 45.85 14.6445 45.7642 14.558C45.688 14.4619 45.5737 14.4235 45.4403 14.4235C45.3069 14.4235 45.2021 14.4715 45.1259 14.5676C45.0496 14.6445 45.0115 14.7983 45.0115 15.0098Z" fill="#225E63"/>
<path d="M46.5631 13.9141H47.3461L47.6452 15.243L47.9444 13.9141H48.7274V16.0959H48.2347V14.4298L47.8564 16.0959H47.4165L47.0382 14.4298V16.0959H46.5455V13.9141H46.5631Z" fill="#225E63"/>
<path d="M50.9092 13.9141H52.2347C52.5279 13.9141 52.7391 13.9733 52.8799 14.0918C53.0206 14.2102 53.091 14.3682 53.091 14.5854C53.091 14.8026 53.0089 14.9803 52.8564 15.0988C52.7039 15.2271 52.4576 15.2863 52.1408 15.2863H51.7068V16.0959H50.9092V13.9141ZM51.7068 14.8421H51.9062C52.0587 14.8421 52.1643 14.8223 52.2347 14.773C52.2933 14.7236 52.3285 14.6742 52.3285 14.6051C52.3285 14.536 52.3051 14.4768 52.2464 14.4274C52.1878 14.3781 52.0939 14.3583 51.9414 14.3583H51.7186V14.8421H51.7068Z" fill="#225E63"/>
<path d="M53.0909 13.9141H53.9436V15.5603H55.2728V16.0959H53.0909V13.9141Z" fill="#225E63"/>
<path d="M55.2728 13.9141H56.0051V16.0959H55.2728V13.9141Z" fill="#225E63"/>
<path d="M58.8819 15.7389H58.1819L58.0819 16.0959H57.4546L58.2091 13.9141H58.8819L59.6364 16.0959H58.991L58.8819 15.7389ZM58.7546 15.2727L58.5364 14.4893L58.3182 15.2727H58.7546Z" fill="#225E63"/>
<path d="M59.6365 13.9141H60.291L61.1534 15.124V13.9141H61.8183V16.0959H61.1534L60.3014 14.8959V16.0959H59.6365V13.9141Z" fill="#225E63"/>
<path d="M61.8182 13.9141H64.0001V14.4496H63.2728V16.0959H62.5561V14.4496H61.8288V13.9141H61.8182Z" fill="#225E63"/>
<path d="M35.7161 16.5968L37.8182 15.9487L37.1353 14.4644C36.6338 15.0811 36.1323 15.8755 35.7161 16.5968ZM35.0012 9.81279L30.8823 0.823242L0.727295 2.49572L9.08235 24.8232L25.1629 19.8581C24.1385 18.4156 23.7651 16.7013 24.9495 15.8651C26.2726 14.9243 28.268 16.0114 29.5378 17.548C30.765 15.541 34.2116 10.8685 35.0012 9.81279Z" fill="#225E63"/>
<path d="M31.2726 7.39335C32.4757 7.39335 33.4545 6.41572 33.4545 5.19912C33.4545 3.98251 32.4757 3.00488 31.2726 3.00488C30.0696 3.00488 29.0908 3.98251 29.0908 5.19912C29.0908 6.40486 30.0696 7.39335 31.2726 7.39335ZM29.4884 8.33839H33.0568V18.2776H29.4884V8.33839Z" fill="#FEFEFE"/>
<path d="M26.6674 10.6615C26.6964 10.6731 26.7157 10.6615 26.7157 10.6268V7.94047C26.7157 7.90574 26.6964 7.871 26.6674 7.84784C26.6674 7.84784 26.2228 7.50048 24.8698 7.40785C24.8021 7.36154 23.6134 7.34996 23.2944 7.40785C18.3654 7.88258 18.1818 12.1551 18.1818 12.3404V13.3825C18.1818 13.5099 18.1818 17.8751 23.2944 18.2572C23.797 18.3035 24.7731 18.2572 24.8698 18.2572C26.0489 18.2572 26.8607 17.8287 26.8607 17.8287C26.8897 17.8172 26.909 17.7824 26.909 17.7477V15.2351C26.909 15.2004 26.8897 15.1888 26.8704 15.2119C26.8704 15.2119 26.5031 15.5593 24.8988 15.7561C24.4445 15.814 24.2222 15.7909 24.0579 15.7561C21.7771 15.293 21.6707 13.3014 21.6707 13.3014C21.6707 13.2667 21.6611 13.2088 21.6611 13.1857V12.4215C21.6611 12.3867 21.6611 12.3288 21.6707 12.3057C21.6707 12.3057 21.8254 10.1636 24.0579 9.93202H24.8988C25.8749 10.0825 26.6674 10.6615 26.6674 10.6615Z" fill="#FEFEFE"/>
<path d="M7.27271 18.2183C7.27271 18.254 7.29208 18.2777 7.32114 18.2777H10.6241C10.6532 18.2777 10.6726 18.254 10.6726 18.2183V15.0554C10.6726 15.0197 10.6919 14.996 10.721 14.996C10.721 14.996 16 15.4597 16 11.1197C16 7.68331 12.6873 7.31471 11.6024 7.37416C11.5831 7.37416 7.32114 7.37416 7.32114 7.37416C7.29208 7.37416 7.27271 7.39794 7.27271 7.43362V18.2183ZM10.6144 12.5822V9.74037H11.4281C11.4281 9.74037 12.6001 9.79982 12.697 10.7867C12.7164 10.8581 12.7164 11.3456 12.697 11.3694C12.542 12.5227 11.5249 12.5822 11.5249 12.5822H10.6144Z" fill="#FEFEFE"/>
<path d="M29.8058 22.6414C30.1261 22.6414 30.3777 22.6414 30.7895 22.4736C32.2078 21.7918 37.0004 11.0618 42.056 7.75788C42.0903 7.7369 42.1247 7.70543 42.1475 7.67397C42.1818 7.63201 42.1818 7.59006 42.1818 7.59006C42.1818 7.59006 42.1818 7.36979 41.4384 7.36979C36.9432 7.25442 32.265 15.9076 29.8058 19.3269C29.7715 19.3689 29.6114 19.3269 29.6114 19.3269C29.6114 19.3269 27.9643 17.5439 26.5346 16.8621C26.5002 16.8516 26.3401 16.7992 26.1685 16.8096C26.0542 16.8096 25.3907 16.9355 25.0819 17.2292C24.7159 17.5858 24.7273 17.7851 24.7273 18.2151C24.7273 18.2466 24.7502 18.3934 24.796 18.4669C25.1505 19.0333 26.7404 21.0471 28.0558 22.1589C28.2503 22.2953 28.5591 22.6414 29.8058 22.6414Z" fill="#2BBC5D"/>
<path d="M42.1819 3.00488H45.4496C46.0992 3.00488 46.6188 3.1152 47.0085 3.32358C47.4083 3.54421 47.738 3.85064 47.9879 4.24288C48.2477 4.64738 48.4375 5.11316 48.5475 5.64022C48.6674 6.16729 48.7273 6.73113 48.7273 7.33174C48.7273 8.26331 48.6374 8.9865 48.4675 9.50131C48.2976 10.0161 48.0578 10.4451 47.748 10.8006C47.4382 11.1438 47.1085 11.3767 46.7587 11.4993C46.279 11.6586 45.8393 11.7322 45.4496 11.7322H42.1819V3.00488ZM44.3804 4.97833V9.74645H44.92C45.3797 9.74645 45.7094 9.68517 45.8993 9.56259C46.0892 9.44002 46.2491 9.21939 46.359 8.91295C46.4689 8.60652 46.5289 8.0917 46.5289 7.39303C46.5289 6.46147 46.409 5.83634 46.1591 5.49313C45.9093 5.14993 45.5096 4.97833 44.93 4.97833H44.3804Z" fill="#225E63"/>
<path d="M50.9092 8.79941L53.0337 8.64568C53.0843 9.04775 53.1753 9.35522 53.3169 9.56808C53.5496 9.91102 53.8734 10.0766 54.2983 10.0766C54.6119 10.0766 54.8648 9.99379 55.0368 9.81641C55.2087 9.63903 55.2998 9.438 55.2998 9.21331C55.2998 9.00045 55.2189 8.79941 55.057 8.62203C54.8951 8.44465 54.5107 8.29091 53.9138 8.13718C52.9325 7.87702 52.2446 7.53408 51.8197 7.10836C51.3948 6.68264 51.1924 6.13866 51.1924 5.47643C51.1924 5.03888 51.3037 4.63681 51.5162 4.24657C51.7286 3.85633 52.0524 3.56069 52.4874 3.336C52.9224 3.11131 53.5092 3.00488 54.2578 3.00488C55.1784 3.00488 55.8866 3.20592 56.362 3.60799C56.8476 4.01006 57.1309 4.64864 57.222 5.52373L55.1177 5.66564C55.057 5.28722 54.9457 5.01523 54.7636 4.83785C54.5815 4.66046 54.3387 4.57768 54.0251 4.57768C53.7621 4.57768 53.5699 4.63681 53.4383 4.76689C53.3068 4.89698 53.2461 5.05071 53.2461 5.23992C53.2461 5.37 53.2967 5.50008 53.408 5.60651C53.5092 5.71294 53.7621 5.81937 54.1566 5.91397C55.1278 6.16231 55.8259 6.41065 56.2508 6.65899C56.6757 6.90732 56.9792 7.22661 57.1714 7.5932C57.3636 7.9598 57.4546 8.38552 57.4546 8.84672C57.4546 9.39069 57.3231 9.88737 57.0702 10.3367C56.8173 10.7979 56.4531 11.1409 55.9978 11.3774C55.5426 11.6139 54.9558 11.7322 54.2578 11.7322C53.0337 11.7322 52.1839 11.4602 51.7084 10.9044C51.243 10.3486 50.98 9.65086 50.9092 8.79941Z" fill="#225E63"/>
<path d="M57.4546 8.79941L59.5791 8.64568C59.6297 9.04775 59.7207 9.35522 59.8623 9.56808C60.095 9.91102 60.4188 10.0766 60.8437 10.0766C61.1573 10.0766 61.4102 9.99379 61.5822 9.81641C61.7542 9.63903 61.8452 9.438 61.8452 9.21331C61.8452 9.00045 61.7643 8.79941 61.6024 8.62203C61.4405 8.44465 61.0561 8.29091 60.4592 8.13718C59.4779 7.87702 58.79 7.53408 58.3651 7.10836C57.9503 6.68264 57.7379 6.13866 57.7379 5.47643C57.7379 5.03888 57.8491 4.63681 58.0616 4.24657C58.274 3.85633 58.5978 3.56069 59.0328 3.336C59.4678 3.11131 60.0546 3.00488 60.8032 3.00488C61.7238 3.00488 62.432 3.20592 62.9074 3.60799C63.393 4.01006 63.6763 4.64864 63.7674 5.52373L61.6631 5.66564C61.6024 5.28722 61.4911 5.01523 61.309 4.83785C61.1269 4.66046 60.8841 4.57768 60.5705 4.57768C60.3075 4.57768 60.1153 4.63681 59.9837 4.76689C59.8522 4.89698 59.7915 5.05071 59.7915 5.23992C59.7915 5.37 59.8421 5.50008 59.9534 5.60651C60.0546 5.71294 60.3075 5.81937 60.702 5.91397C61.6732 6.16231 62.3713 6.41065 62.7962 6.65899C63.2211 6.90732 63.5246 7.22661 63.7168 7.5932C63.909 7.9598 64 8.38552 64 8.84672C64 9.39069 63.8685 9.88737 63.6156 10.3367C63.3627 10.7979 62.9985 11.1409 62.5432 11.3774C62.088 11.6139 61.5012 11.7322 60.8032 11.7322C59.5791 11.7322 58.7293 11.4602 58.2538 10.9044C57.7783 10.3486 57.5153 9.65086 57.4546 8.79941Z" fill="#225E63"/>
</svg>
